<svg xmlns="http://www.w3.org/2000/svg" viewBox="0 0 132.86 156.64"><defs><style>.cls-1,.cls-2{fill:#82a664;}.cls-1{stroke:#82a664;stroke-miterlimit:10;stroke-width:4.54px;}</style></defs><title>Asset 1</title><g id="Layer_2" data-name="Layer 2"><g id="Layer_1-2" data-name="Layer 1"><polygon class="cls-1" points="75.32 154.37 50.44 154.37 56.52 154.37 59.7 140.05 75.32 154.37"/><path class="cls-1" d="M59.8,50.16A55,55,0,0,0,2.27,105.05c0,30.34,15.54,49.05,31.74,49.05l7.14-11.48c-11.65,0-11.08-.56-17.71-8.73-7.23-8.9-8.27-17.26-8.77-28.38-.48-10.71,5.13-23,12.59-30.41A44.39,44.39,0,0,1,57.68,62.5c11.65,0,22,4.87,30.41,12.6s12.41,19.28,12.59,30.41c.11,6.07-.24,7.53-.81,9.11l9,8.4c3.28-7.59,3.51-9.42,3.25-19.43A55.14,55.14,0,0,0,59.8,50.16Z"/><polygon class="cls-1" points="47.72 154.37 77.21 109.31 126.97 154.37 108.35 154.37 79.63 129.31 62.49 154.37 47.72 154.37"/><path class="cls-2" d="M16.75,13.2q3.69-2.08,7.46-3.87v8q4.53-1.41,9.14-2.4v6.38q-4.61,1-9.14,2.4v9.51a6.25,6.25,0,0,0,.84,3.6c.55.79,1.67.93,3.38.48A21.14,21.14,0,0,0,31,36.4a19.71,19.71,0,0,0,2.39-1.19L34.43,41a33.85,33.85,0,0,1-3.09,1.66,25.42,25.42,0,0,1-4.14,1.47,14.91,14.91,0,0,1-5.11.72,5.32,5.32,0,0,1-3.2-1.23,5.73,5.73,0,0,1-1.67-3,19.52,19.52,0,0,1-.47-4.59Z"/><path class="cls-2" d="M39.6,40.8V2.13Q43.47.92,47.36,0V13a16.33,16.33,0,0,1,2-.63A12.07,12.07,0,0,1,51.76,12a13.2,13.2,0,0,1,5.57.85,8.8,8.8,0,0,1,3.56,2.67,10.29,10.29,0,0,1,1.88,4,21.67,21.67,0,0,1,.55,5.08V39.88q-3.89-.29-7.8-.29V25.24c0-2.47-.32-4.21-1-5.24S52.71,18.48,51,18.55a9.25,9.25,0,0,0-2,.29,15.58,15.58,0,0,0-1.65.5V39.91C44.77,40.11,42.18,40.4,39.6,40.8Z"/><path class="cls-2" d="M69.06,27.15A15.36,15.36,0,0,1,70.17,21a10.74,10.74,0,0,1,2.94-4A9,9,0,0,1,77.26,15a11,11,0,0,1,4.8.21,15.31,15.31,0,0,1,9,6.29A19.89,19.89,0,0,1,94.25,33.1c0,.44,0,.93,0,1.44s-.07,1-.1,1.38A105.41,105.41,0,0,0,77,30.8,6.64,6.64,0,0,0,79.19,35a12.42,12.42,0,0,0,5.21,2.74,30,30,0,0,0,4.08.86,15.52,15.52,0,0,0,3.23.18c.33,2.19.67,4.39,1,6.59a9.89,9.89,0,0,1-1.6,0c-.67,0-1.41-.12-2.23-.24s-1.71-.27-2.65-.46-1.89-.41-2.84-.67a24.37,24.37,0,0,1-6.33-2.61,17.4,17.4,0,0,1-4.5-3.79,14.71,14.71,0,0,1-2.65-4.85A18.62,18.62,0,0,1,69.06,27.15Zm18,1a9,9,0,0,0-.33-2,6.68,6.68,0,0,0-.86-1.91,7.18,7.18,0,0,0-1.47-1.61,5.75,5.75,0,0,0-2.22-1.07,4.55,4.55,0,0,0-2.2-.11,3.25,3.25,0,0,0-1.54.8,3.82,3.82,0,0,0-1,1.46A9.5,9.5,0,0,0,77,25.56,101.88,101.88,0,0,1,87,28.18Z"/></g></g></svg>