<?xml version="1.0" standalone="no"?>
<!DOCTYPE svg PUBLIC "-//W3C//DTD SVG 20010904//EN"
 "http://www.w3.org/TR/2001/REC-SVG-20010904/DTD/svg10.dtd">
<svg version="1.0" xmlns="http://www.w3.org/2000/svg"
 width="834.000000pt" height="834.000000pt" viewBox="0 0 834.000000 834.000000"
 preserveAspectRatio="xMidYMid meet">
<metadata>
Created by potrace 1.11, written by Peter Selinger 2001-2013
</metadata>
<g transform="translate(0.000000,834.000000) scale(0.100000,-0.100000)"
fill="#000000" stroke="none">
<path d="M8327 5614 c-3 -4 -139 -6 -301 -6 l-296 0 -1 -31 c-4 -215 1 -1787
6 -1845 l7 -77 -52 85 c-29 47 -76 121 -105 165 -28 44 -87 134 -130 200 -139
213 -356 547 -440 675 -45 69 -107 163 -137 210 -183 281 -277 427 -336 517
l-67 102 -342 0 -343 0 -1 -47 c0 -72 -1 -2744 0 -2764 1 -17 22 -18 301 -18
l301 0 -1 948 c-1 521 -5 966 -9 988 -13 70 0 66 49 -15 26 -44 71 -114 99
-157 28 -42 51 -80 51 -85 0 -4 4 -9 8 -11 6 -2 181 -264 217 -326 6 -9 64
-98 129 -197 66 -99 160 -243 211 -320 50 -77 157 -239 236 -360 80 -121 180
-275 224 -342 l80 -122 325 -3 325 -3 0 1422 c0 783 0 1423 -1 1423 0 0 -3 -3
-7 -6z"/>
<path d="M15 5579 c4 -23 2 -29 -7 -23 -10 6 -10 4 0 -8 9 -11 10 -18 2 -23
-6 -3 -8 -9 -6 -13 2 -4 7 -24 10 -45 5 -29 3 -36 -6 -31 -10 6 -10 4 0 -8 9
-11 10 -18 2 -23 -6 -3 -8 -9 -6 -13 2 -4 7 -24 10 -45 5 -29 3 -36 -6 -31
-10 6 -10 4 0 -8 9 -11 10 -18 2 -23 -6 -3 -8 -9 -6 -13 2 -4 7 -24 10 -45 5
-29 3 -36 -6 -31 -10 6 -10 4 0 -8 9 -11 10 -18 2 -23 -6 -3 -8 -9 -6 -13 2
-4 7 -24 10 -45 5 -29 3 -36 -6 -31 -10 6 -10 4 0 -8 9 -11 10 -18 2 -23 -6
-3 -8 -9 -6 -13 2 -4 7 -24 10 -45 5 -29 3 -36 -6 -31 -10 6 -10 4 0 -8 9 -11
10 -18 2 -23 -6 -3 -8 -9 -6 -13 2 -4 7 -24 10 -45 5 -29 3 -36 -6 -31 -10 6
-10 4 0 -8 9 -11 10 -18 2 -23 -6 -3 -8 -9 -6 -13 2 -4 7 -24 10 -45 5 -29 3
-36 -6 -31 -10 6 -10 4 0 -8 9 -11 10 -18 2 -23 -6 -3 -8 -9 -6 -13 2 -4 7
-24 10 -45 5 -29 3 -36 -6 -31 -10 6 -10 4 0 -8 9 -11 10 -18 2 -23 -6 -3 -8
-9 -6 -13 2 -4 7 -24 10 -45 5 -29 3 -36 -6 -31 -10 6 -10 4 0 -8 9 -11 10
-18 2 -23 -6 -3 -8 -9 -6 -13 2 -4 7 -24 10 -45 5 -29 3 -36 -6 -31 -10 6 -10
4 0 -8 9 -11 10 -18 2 -23 -6 -3 -8 -9 -6 -13 2 -4 7 -24 10 -45 5 -29 3 -36
-6 -31 -10 6 -10 4 0 -8 9 -11 10 -18 2 -23 -6 -3 -8 -9 -6 -13 2 -4 7 -24 10
-45 5 -29 3 -36 -6 -31 -10 6 -10 4 0 -8 9 -11 10 -18 2 -23 -6 -3 -8 -9 -6
-13 2 -4 7 -24 10 -45 5 -29 3 -36 -6 -31 -10 6 -10 4 0 -8 9 -11 10 -18 2
-23 -6 -3 -8 -9 -6 -13 2 -4 7 -24 10 -45 5 -29 3 -36 -6 -31 -10 6 -10 4 0
-8 9 -11 10 -18 2 -23 -6 -3 -8 -9 -6 -13 2 -4 7 -24 10 -45 5 -29 3 -36 -6
-31 -10 6 -10 4 0 -8 9 -11 10 -18 2 -23 -6 -3 -8 -9 -6 -13 2 -4 7 -24 10
-45 5 -29 3 -36 -6 -31 -10 6 -10 4 0 -8 9 -11 10 -18 2 -23 -6 -3 -8 -9 -6
-13 2 -4 7 -24 10 -45 5 -29 3 -36 -6 -31 -10 6 -10 4 0 -8 9 -11 10 -18 2
-23 -6 -3 -8 -9 -6 -13 2 -4 7 -24 10 -45 5 -29 3 -36 -6 -31 -10 6 -10 4 0
-8 9 -11 10 -18 2 -23 -6 -3 -8 -9 -6 -13 2 -4 7 -24 10 -45 5 -29 3 -36 -6
-31 -10 6 -10 4 0 -8 9 -11 10 -18 2 -23 -6 -3 -8 -9 -6 -13 2 -4 7 -24 10
-45 5 -29 3 -36 -6 -31 -10 6 -10 4 0 -8 9 -11 10 -18 2 -23 -6 -3 -8 -9 -6
-13 2 -4 7 -24 10 -45 5 -29 3 -36 -6 -31 -10 6 -10 4 0 -8 9 -11 10 -18 2
-23 -6 -3 -8 -9 -6 -13 2 -4 7 -24 10 -45 5 -29 3 -36 -6 -31 -10 6 -10 4 0
-8 9 -11 10 -18 2 -23 -6 -3 -8 -9 -6 -13 2 -4 7 -24 10 -45 5 -29 3 -37 -6
-31 -10 5 -10 4 -2 -5 9 -10 149 -12 625 -8 338 2 625 7 639 10 14 3 42 8 63
11 94 15 117 19 197 43 312 90 562 263 738 509 86 119 173 300 197 407 2 12
12 54 20 92 66 292 48 670 -45 946 -148 443 -518 718 -1055 784 -27 4 -61 9
-75 12 -14 3 -312 7 -663 9 l-637 3 5 -30z m1135 -503 c14 -4 41 -9 60 -12 51
-8 158 -43 215 -72 101 -50 180 -115 265 -219 62 -75 125 -231 148 -365 9 -57
9 -330 -1 -393 -43 -272 -197 -498 -418 -614 -154 -80 -261 -99 -549 -97
l-215 1 -1 885 c0 487 1 888 3 892 5 9 455 3 493 -6z"/>
<path d="M3681 5587 c-9 -23 -331 -931 -433 -1222 -33 -93 -82 -233 -110 -310
-27 -77 -53 -151 -58 -165 -4 -14 -94 -268 -199 -564 -105 -297 -191 -541
-191 -543 0 -2 154 -3 343 -3 l342 0 28 93 c16 50 41 135 57 187 15 52 51 172
79 265 28 94 62 206 76 250 13 44 38 127 56 185 18 58 34 110 35 115 1 6 47
159 102 340 55 182 105 346 110 365 5 19 28 94 50 165 42 137 67 232 77 303 8
48 25 57 25 13 0 -45 26 -160 69 -305 42 -141 247 -822 356 -1181 37 -121 77
-254 89 -295 12 -41 51 -171 86 -287 l64 -213 348 0 c191 0 348 1 348 3 0 2
-19 57 -41 122 -23 66 -98 284 -166 485 -69 201 -147 430 -174 510 -28 80 -58
170 -68 200 -10 30 -77 226 -149 435 -71 209 -147 430 -167 490 -20 61 -39
117 -42 125 -3 8 -38 111 -79 227 -40 117 -75 217 -78 222 -4 6 -158 10 -392
10 l-385 0 -8 -22z"/>
</g>
</svg>
